# Blender v3.6.5 OBJ File: 'PipeAttempt.blend'
# www.blender.org
mtllib PipeAttempt.mtl
o Cube_Cube.002
v -0.000000 -1.736418 -0.280000
v -0.083435 -1.736418 -0.266785
v -0.158702 -1.736418 -0.228435
v -0.218435 -1.736418 -0.168702
v -0.256785 -1.736418 -0.093435
v -0.270000 -1.736418 -0.010000
v -0.270000 -1.736418 0.010000
v -0.256785 -1.736418 0.093435
v -0.218435 -1.736418 0.168702
v -0.158702 -1.736418 0.228435
v -0.083435 -1.736418 0.266785
v 0.000000 -1.736418 0.280000
v 0.083435 -1.736418 0.266785
v 0.158702 -1.736418 0.228435
v 0.218435 -1.736418 0.168702
v 0.256785 -1.736418 0.093435
v 0.270000 -1.736418 0.010000
v 0.270000 -1.736418 -0.010000
v 0.256785 -1.736418 -0.093435
v 0.218435 -1.736418 -0.168702
v 0.158702 -1.736418 -0.228435
v 0.083435 -1.736418 -0.266785
v -0.000000 -0.712993 -0.280000
v -0.083435 -0.712993 -0.266785
v -0.158702 -0.712993 -0.228435
v -0.218435 -0.712993 -0.168702
v -0.256785 -0.712993 -0.093435
v -0.270000 -0.712993 -0.010000
v -0.270000 -0.712993 0.010000
v -0.256785 -0.712993 0.093435
v -0.218435 -0.712993 0.168702
v -0.158702 -0.712993 0.228435
v -0.083435 -0.712993 0.266785
v 0.000000 -0.712993 0.280000
v 0.083435 -0.712993 0.266785
v 0.158702 -0.712993 0.228435
v 0.218435 -0.712993 0.168702
v 0.256785 -0.712993 0.093435
v 0.270000 -0.712993 0.010000
v 0.270000 -0.712993 -0.010000
v 0.256785 -0.712993 -0.093435
v 0.218435 -0.712993 -0.168702
v 0.158702 -0.712993 -0.228435
v 0.083435 -0.712993 -0.266785
v -0.000000 -0.237664 -0.280000
v -0.083435 -0.237664 -0.266785
v -0.158702 -0.237664 -0.228435
v -0.218435 -0.237664 -0.168702
v -0.256785 -0.237664 -0.093435
v -0.270000 -0.237664 -0.010000
v -0.270000 -0.237664 0.010000
v -0.256785 -0.237664 0.093435
v -0.218435 -0.237664 0.168702
v -0.158702 -0.237664 0.228435
v -0.083435 -0.237664 0.266785
v 0.000000 -0.237664 0.280000
v 0.083435 -0.237664 0.266785
v 0.158702 -0.237664 0.228435
v 0.218435 -0.237664 0.168702
v 0.256785 -0.237664 0.093435
v 0.270000 -0.237664 0.010000
v 0.270000 -0.237664 -0.010000
v 0.256785 -0.237664 -0.093435
v 0.218435 -0.237664 -0.168702
v 0.158702 -0.237664 -0.228435
v 0.083435 -0.237664 -0.266785
v -0.000000 0.237664 -0.280000
v -0.083435 0.237664 -0.266785
v -0.158702 0.237664 -0.228435
v -0.218435 0.237664 -0.168702
v -0.256785 0.237664 -0.093435
v -0.270000 0.237664 -0.010000
v -0.270000 0.237664 0.010000
v -0.256785 0.237664 0.093435
v -0.218435 0.237664 0.168702
v -0.158702 0.237664 0.228435
v -0.083435 0.237664 0.266785
v 0.000000 0.237664 0.280000
v 0.083435 0.237664 0.266785
v 0.158702 0.237664 0.228435
v 0.218435 0.237664 0.168702
v 0.256785 0.237664 0.093435
v 0.270000 0.237664 0.010000
v 0.270000 0.237664 -0.010000
v 0.256785 0.237664 -0.093435
v 0.218435 0.237664 -0.168702
v 0.158702 0.237664 -0.228435
v 0.083435 0.237664 -0.266785
v -0.000000 0.712993 -0.280000
v -0.083435 0.712993 -0.266785
v -0.158702 0.712993 -0.228435
v -0.218435 0.712993 -0.168702
v -0.256785 0.712993 -0.093435
v -0.270000 0.712993 -0.010000
v -0.270000 0.712993 0.010000
v -0.256785 0.712993 0.093435
v -0.218435 0.712993 0.168702
v -0.158702 0.712993 0.228435
v -0.083435 0.712993 0.266785
v 0.000000 0.712993 0.280000
v 0.083435 0.712993 0.266785
v 0.158702 0.712993 0.228435
v 0.218435 0.712993 0.168702
v 0.256785 0.712993 0.093435
v 0.270000 0.712993 0.010000
v 0.270000 0.712993 -0.010000
v 0.256785 0.712993 -0.093435
v 0.218435 0.712993 -0.168702
v 0.158702 0.712993 -0.228435
v 0.083435 0.712993 -0.266785
v -0.000000 1.042933 -0.280000
v -0.083435 1.042933 -0.266785
v -0.158702 1.042933 -0.228435
v -0.218435 1.042933 -0.168702
v -0.256785 1.042933 -0.093435
v -0.270000 1.042933 -0.010000
v -0.270000 1.042933 0.010000
v -0.256785 1.042933 0.093435
v -0.218435 1.042933 0.168702
v -0.158702 1.042933 0.228435
v -0.083435 1.042933 0.266785
v 0.000000 1.042933 0.280000
v 0.083435 1.042933 0.266785
v 0.158702 1.042933 0.228435
v 0.218435 1.042933 0.168702
v 0.256785 1.042933 0.093435
v 0.270000 1.042933 0.010000
v 0.270000 1.042933 -0.010000
v 0.256785 1.042933 -0.093435
v 0.218435 1.042933 -0.168702
v 0.158702 1.042933 -0.228435
v 0.083435 1.042933 -0.266785
v -0.000000 1.280597 -0.280000
v -0.083435 1.280597 -0.266785
v -0.158702 1.280597 -0.228435
v -0.218435 1.280597 -0.168702
v -0.256785 1.280597 -0.093435
v -0.270000 1.280597 -0.010000
v -0.270000 1.280597 0.010000
v -0.256785 1.280597 0.093435
v -0.218435 1.280597 0.168702
v -0.158702 1.280597 0.228435
v -0.083435 1.280597 0.266785
v 0.000000 1.280597 0.280000
v 0.083435 1.280597 0.266785
v 0.158702 1.280597 0.228435
v 0.218435 1.280597 0.168702
v 0.256785 1.280597 0.093435
v 0.270000 1.280597 0.010000
v 0.270000 1.280597 -0.010000
v 0.256785 1.280597 -0.093435
v 0.218435 1.280597 -0.168702
v 0.158702 1.280597 -0.228435
v 0.083435 1.280597 -0.266785
v -0.000000 1.518261 -0.280000
v -0.083435 1.518261 -0.266785
v -0.158702 1.518261 -0.228435
v -0.218435 1.518261 -0.168702
v -0.256785 1.518261 -0.093435
v -0.270000 1.518261 -0.010000
v -0.270000 1.518261 0.010000
v -0.256785 1.518261 0.093435
v -0.218435 1.518261 0.168702
v -0.158702 1.518261 0.228435
v -0.083435 1.518261 0.266785
v 0.000000 1.518261 0.280000
v 0.083435 1.518261 0.266785
v 0.158702 1.518261 0.228435
v 0.218435 1.518261 0.168702
v 0.256785 1.518261 0.093435
v 0.270000 1.518261 0.010000
v 0.270000 1.518261 -0.010000
v 0.256785 1.518261 -0.093435
v 0.218435 1.518261 -0.168702
v 0.158702 1.518261 -0.228435
v 0.083435 1.518261 -0.266785
v -0.000000 1.755926 -0.280000
v -0.083435 1.755926 -0.266785
v -0.158702 1.755926 -0.228435
v -0.218435 1.755926 -0.168702
v -0.256785 1.755926 -0.093435
v -0.270000 1.755926 -0.010000
v -0.270000 1.755926 0.010000
v -0.256785 1.755926 0.093435
v -0.218435 1.755926 0.168702
v -0.158702 1.755926 0.228435
v -0.083435 1.755926 0.266785
v 0.000000 1.755926 0.280000
v 0.083435 1.755926 0.266785
v 0.158702 1.755926 0.228435
v 0.218435 1.755926 0.168702
v 0.256785 1.755926 0.093435
v 0.270000 1.755926 0.010000
v 0.270000 1.755926 -0.010000
v 0.256785 1.755926 -0.093435
v 0.218435 1.755926 -0.168702
v 0.158702 1.755926 -0.228435
v 0.083435 1.755926 -0.266785
vt 0.337794 0.999733
vt 0.337794 0.706841
vt 0.357353 0.706841
vt 0.357353 0.999733
vt 0.094033 0.999733
vt 0.094033 0.706841
vt 0.113591 0.706841
vt 0.113591 0.999733
vt 0.071041 0.999733
vt 0.071041 0.706841
vt 0.046865 0.999733
vt 0.046865 0.706841
vt 0.023873 0.999733
vt 0.023873 0.706841
vt 0.004314 0.999733
vt 0.004314 0.706841
vt 0.000267 0.999733
vt 0.000267 0.706841
vt 0.317702 0.999733
vt 0.317702 0.706841
vt 0.337261 0.706841
vt 0.337261 0.999733
vt 0.294710 0.999733
vt 0.294710 0.706841
vt 0.270534 0.999733
vt 0.270534 0.706841
vt 0.247542 0.999733
vt 0.247542 0.706841
vt 0.227983 0.999733
vt 0.227983 0.706841
vt 0.207891 0.999733
vt 0.207891 0.706841
vt 0.227450 0.706841
vt 0.227450 0.999733
vt 0.184899 0.999733
vt 0.184899 0.706841
vt 0.160723 0.999733
vt 0.160723 0.706841
vt 0.137731 0.999733
vt 0.137731 0.706841
vt 0.118172 0.999733
vt 0.118172 0.706841
vt 0.114125 0.999733
vt 0.114125 0.706841
vt 0.427513 0.999733
vt 0.427513 0.706841
vt 0.447071 0.706841
vt 0.447071 0.999733
vt 0.404521 0.999733
vt 0.404521 0.706841
vt 0.380345 0.999733
vt 0.380345 0.706841
vt 0.337794 0.570808
vt 0.357353 0.570808
vt 0.094033 0.570808
vt 0.113591 0.570808
vt 0.071041 0.570808
vt 0.046865 0.570808
vt 0.023873 0.570808
vt 0.004314 0.570808
vt 0.000267 0.570808
vt 0.317702 0.570808
vt 0.337261 0.570808
vt 0.294710 0.570808
vt 0.270534 0.570808
vt 0.247542 0.570808
vt 0.227983 0.570808
vt 0.207891 0.570808
vt 0.227450 0.570808
vt 0.184899 0.570808
vt 0.160723 0.570808
vt 0.137731 0.570808
vt 0.118172 0.570808
vt 0.114125 0.570808
vt 0.427513 0.570808
vt 0.447071 0.570808
vt 0.404521 0.570808
vt 0.380345 0.570808
vt 0.337794 0.434775
vt 0.357353 0.434775
vt 0.094033 0.434775
vt 0.113591 0.434775
vt 0.071041 0.434775
vt 0.046865 0.434775
vt 0.023873 0.434775
vt 0.004314 0.434775
vt 0.000267 0.434775
vt 0.317702 0.434775
vt 0.337261 0.434775
vt 0.294710 0.434775
vt 0.270534 0.434775
vt 0.247542 0.434775
vt 0.227983 0.434775
vt 0.207891 0.434775
vt 0.227450 0.434775
vt 0.184899 0.434775
vt 0.160723 0.434775
vt 0.137731 0.434775
vt 0.118172 0.434775
vt 0.114125 0.434775
vt 0.427513 0.434775
vt 0.447071 0.434775
vt 0.404521 0.434775
vt 0.380345 0.434775
vt 0.337794 0.298742
vt 0.357353 0.298742
vt 0.094033 0.298742
vt 0.113591 0.298742
vt 0.071041 0.298742
vt 0.046865 0.298742
vt 0.023873 0.298742
vt 0.004314 0.298742
vt 0.000267 0.298742
vt 0.317702 0.298742
vt 0.337261 0.298742
vt 0.294710 0.298742
vt 0.270534 0.298742
vt 0.247542 0.298742
vt 0.227983 0.298742
vt 0.207891 0.298742
vt 0.227450 0.298742
vt 0.184899 0.298742
vt 0.160723 0.298742
vt 0.137731 0.298742
vt 0.118172 0.298742
vt 0.114125 0.298742
vt 0.427513 0.298742
vt 0.447071 0.298742
vt 0.404521 0.298742
vt 0.380345 0.298742
vt 0.337794 0.204317
vt 0.357353 0.204317
vt 0.094033 0.204317
vt 0.113591 0.204317
vt 0.071041 0.204317
vt 0.046865 0.204317
vt 0.023873 0.204317
vt 0.004314 0.204317
vt 0.000267 0.204317
vt 0.317702 0.204317
vt 0.337261 0.204317
vt 0.294710 0.204317
vt 0.270534 0.204317
vt 0.247542 0.204317
vt 0.227983 0.204317
vt 0.207891 0.204317
vt 0.227450 0.204317
vt 0.184899 0.204317
vt 0.160723 0.204317
vt 0.137731 0.204317
vt 0.118172 0.204317
vt 0.114125 0.204317
vt 0.427513 0.204317
vt 0.447071 0.204317
vt 0.404521 0.204317
vt 0.380345 0.204317
vt 0.337794 0.136300
vt 0.357353 0.136300
vt 0.094033 0.136300
vt 0.113591 0.136300
vt 0.071041 0.136300
vt 0.046865 0.136300
vt 0.023873 0.136300
vt 0.004314 0.136300
vt 0.000267 0.136300
vt 0.317702 0.136300
vt 0.337261 0.136300
vt 0.294710 0.136300
vt 0.270534 0.136300
vt 0.247542 0.136300
vt 0.227983 0.136300
vt 0.207891 0.136300
vt 0.227450 0.136300
vt 0.184899 0.136300
vt 0.160723 0.136300
vt 0.137731 0.136300
vt 0.118172 0.136300
vt 0.114125 0.136300
vt 0.427513 0.136300
vt 0.447071 0.136300
vt 0.404521 0.136300
vt 0.380345 0.136300
vt 0.337794 0.068283
vt 0.357353 0.068283
vt 0.094033 0.068283
vt 0.113591 0.068283
vt 0.071041 0.068283
vt 0.046865 0.068283
vt 0.023873 0.068283
vt 0.004314 0.068283
vt 0.000267 0.068283
vt 0.317702 0.068283
vt 0.337261 0.068283
vt 0.294710 0.068283
vt 0.270534 0.068283
vt 0.247542 0.068283
vt 0.227983 0.068283
vt 0.207891 0.068283
vt 0.227450 0.068283
vt 0.184899 0.068283
vt 0.160723 0.068283
vt 0.137731 0.068283
vt 0.118172 0.068283
vt 0.114125 0.068283
vt 0.427513 0.068283
vt 0.447071 0.068283
vt 0.404521 0.068283
vt 0.380345 0.068283
vt 0.337794 0.000267
vt 0.357353 0.000267
vt 0.094033 0.000267
vt 0.113591 0.000267
vt 0.071041 0.000267
vt 0.046865 0.000267
vt 0.023873 0.000267
vt 0.004314 0.000267
vt 0.000267 0.000267
vt 0.317702 0.000267
vt 0.337261 0.000267
vt 0.294710 0.000267
vt 0.270534 0.000267
vt 0.247542 0.000267
vt 0.227983 0.000267
vt 0.207891 0.000267
vt 0.227450 0.000267
vt 0.184899 0.000267
vt 0.160723 0.000267
vt 0.137731 0.000267
vt 0.118172 0.000267
vt 0.114125 0.000267
vt 0.427513 0.000267
vt 0.447071 0.000267
vt 0.404521 0.000267
vt 0.380345 0.000267
vn 0.0000 0.0000 -1.0000
vn 0.3090 0.0000 -0.9511
vn -0.3090 0.0000 -0.9511
vn -0.5878 0.0000 -0.8090
vn -0.8090 0.0000 -0.5878
vn -0.9511 0.0000 -0.3090
vn -0.9969 0.0000 -0.0785
vn -0.9969 0.0000 0.0785
vn -0.9511 0.0000 0.3090
vn -0.8090 0.0000 0.5878
vn -0.5878 0.0000 0.8090
vn -0.3090 0.0000 0.9511
vn -0.0000 0.0000 1.0000
vn 0.3090 0.0000 0.9511
vn 0.5878 0.0000 0.8090
vn 0.8090 0.0000 0.5878
vn 0.9511 0.0000 0.3090
vn 0.9969 0.0000 0.0785
vn 0.9969 0.0000 -0.0785
vn 0.9511 0.0000 -0.3090
vn 0.8090 0.0000 -0.5878
vn 0.5878 0.0000 -0.8090
usemtl Metal
s 1
f 1/1/1 23/2/1 44/3/2 22/4/2
f 2/5/3 24/6/3 23/7/1 1/8/1
f 3/9/4 25/10/4 24/6/3 2/5/3
f 4/11/5 26/12/5 25/10/4 3/9/4
f 5/13/6 27/14/6 26/12/5 4/11/5
f 6/15/7 28/16/7 27/14/6 5/13/6
f 7/17/8 29/18/8 28/16/7 6/15/7
f 8/19/9 30/20/9 29/21/8 7/22/8
f 9/23/10 31/24/10 30/20/9 8/19/9
f 10/25/11 32/26/11 31/24/10 9/23/10
f 11/27/12 33/28/12 32/26/11 10/25/11
f 12/29/13 34/30/13 33/28/12 11/27/12
f 13/31/14 35/32/14 34/33/13 12/34/13
f 14/35/15 36/36/15 35/32/14 13/31/14
f 15/37/16 37/38/16 36/36/15 14/35/15
f 16/39/17 38/40/17 37/38/16 15/37/16
f 17/41/18 39/42/18 38/40/17 16/39/17
f 18/43/19 40/44/19 39/42/18 17/41/18
f 19/45/20 41/46/20 40/47/19 18/48/19
f 20/49/21 42/50/21 41/46/20 19/45/20
f 21/51/22 43/52/22 42/50/21 20/49/21
f 22/4/2 44/3/2 43/52/22 21/51/22
f 23/2/1 45/53/1 66/54/2 44/3/2
f 24/6/3 46/55/3 45/56/1 23/7/1
f 25/10/4 47/57/4 46/55/3 24/6/3
f 26/12/5 48/58/5 47/57/4 25/10/4
f 27/14/6 49/59/6 48/58/5 26/12/5
f 28/16/7 50/60/7 49/59/6 27/14/6
f 29/18/8 51/61/8 50/60/7 28/16/7
f 30/20/9 52/62/9 51/63/8 29/21/8
f 31/24/10 53/64/10 52/62/9 30/20/9
f 32/26/11 54/65/11 53/64/10 31/24/10
f 33/28/12 55/66/12 54/65/11 32/26/11
f 34/30/13 56/67/13 55/66/12 33/28/12
f 35/32/14 57/68/14 56/69/13 34/33/13
f 36/36/15 58/70/15 57/68/14 35/32/14
f 37/38/16 59/71/16 58/70/15 36/36/15
f 38/40/17 60/72/17 59/71/16 37/38/16
f 39/42/18 61/73/18 60/72/17 38/40/17
f 40/44/19 62/74/19 61/73/18 39/42/18
f 41/46/20 63/75/20 62/76/19 40/47/19
f 42/50/21 64/77/21 63/75/20 41/46/20
f 43/52/22 65/78/22 64/77/21 42/50/21
f 44/3/2 66/54/2 65/78/22 43/52/22
f 45/53/1 67/79/1 88/80/2 66/54/2
f 46/55/3 68/81/3 67/82/1 45/56/1
f 47/57/4 69/83/4 68/81/3 46/55/3
f 48/58/5 70/84/5 69/83/4 47/57/4
f 49/59/6 71/85/6 70/84/5 48/58/5
f 50/60/7 72/86/7 71/85/6 49/59/6
f 51/61/8 73/87/8 72/86/7 50/60/7
f 52/62/9 74/88/9 73/89/8 51/63/8
f 53/64/10 75/90/10 74/88/9 52/62/9
f 54/65/11 76/91/11 75/90/10 53/64/10
f 55/66/12 77/92/12 76/91/11 54/65/11
f 56/67/13 78/93/13 77/92/12 55/66/12
f 57/68/14 79/94/14 78/95/13 56/69/13
f 58/70/15 80/96/15 79/94/14 57/68/14
f 59/71/16 81/97/16 80/96/15 58/70/15
f 60/72/17 82/98/17 81/97/16 59/71/16
f 61/73/18 83/99/18 82/98/17 60/72/17
f 62/74/19 84/100/19 83/99/18 61/73/18
f 63/75/20 85/101/20 84/102/19 62/76/19
f 64/77/21 86/103/21 85/101/20 63/75/20
f 65/78/22 87/104/22 86/103/21 64/77/21
f 66/54/2 88/80/2 87/104/22 65/78/22
f 67/79/1 89/105/1 110/106/2 88/80/2
f 68/81/3 90/107/3 89/108/1 67/82/1
f 69/83/4 91/109/4 90/107/3 68/81/3
f 70/84/5 92/110/5 91/109/4 69/83/4
f 71/85/6 93/111/6 92/110/5 70/84/5
f 72/86/7 94/112/7 93/111/6 71/85/6
f 73/87/8 95/113/8 94/112/7 72/86/7
f 74/88/9 96/114/9 95/115/8 73/89/8
f 75/90/10 97/116/10 96/114/9 74/88/9
f 76/91/11 98/117/11 97/116/10 75/90/10
f 77/92/12 99/118/12 98/117/11 76/91/11
f 78/93/13 100/119/13 99/118/12 77/92/12
f 79/94/14 101/120/14 100/121/13 78/95/13
f 80/96/15 102/122/15 101/120/14 79/94/14
f 81/97/16 103/123/16 102/122/15 80/96/15
f 82/98/17 104/124/17 103/123/16 81/97/16
f 83/99/18 105/125/18 104/124/17 82/98/17
f 84/100/19 106/126/19 105/125/18 83/99/18
f 85/101/20 107/127/20 106/128/19 84/102/19
f 86/103/21 108/129/21 107/127/20 85/101/20
f 87/104/22 109/130/22 108/129/21 86/103/21
f 88/80/2 110/106/2 109/130/22 87/104/22
f 89/105/1 111/131/1 132/132/2 110/106/2
f 90/107/3 112/133/3 111/134/1 89/108/1
f 91/109/4 113/135/4 112/133/3 90/107/3
f 92/110/5 114/136/5 113/135/4 91/109/4
f 93/111/6 115/137/6 114/136/5 92/110/5
f 94/112/7 116/138/7 115/137/6 93/111/6
f 95/113/8 117/139/8 116/138/7 94/112/7
f 96/114/9 118/140/9 117/141/8 95/115/8
f 97/116/10 119/142/10 118/140/9 96/114/9
f 98/117/11 120/143/11 119/142/10 97/116/10
f 99/118/12 121/144/12 120/143/11 98/117/11
f 100/119/13 122/145/13 121/144/12 99/118/12
f 101/120/14 123/146/14 122/147/13 100/121/13
f 102/122/15 124/148/15 123/146/14 101/120/14
f 103/123/16 125/149/16 124/148/15 102/122/15
f 104/124/17 126/150/17 125/149/16 103/123/16
f 105/125/18 127/151/18 126/150/17 104/124/17
f 106/126/19 128/152/19 127/151/18 105/125/18
f 107/127/20 129/153/20 128/154/19 106/128/19
f 108/129/21 130/155/21 129/153/20 107/127/20
f 109/130/22 131/156/22 130/155/21 108/129/21
f 110/106/2 132/132/2 131/156/22 109/130/22
f 111/131/1 133/157/1 154/158/2 132/132/2
f 112/133/3 134/159/3 133/160/1 111/134/1
f 113/135/4 135/161/4 134/159/3 112/133/3
f 114/136/5 136/162/5 135/161/4 113/135/4
f 115/137/6 137/163/6 136/162/5 114/136/5
f 116/138/7 138/164/7 137/163/6 115/137/6
f 117/139/8 139/165/8 138/164/7 116/138/7
f 118/140/9 140/166/9 139/167/8 117/141/8
f 119/142/10 141/168/10 140/166/9 118/140/9
f 120/143/11 142/169/11 141/168/10 119/142/10
f 121/144/12 143/170/12 142/169/11 120/143/11
f 122/145/13 144/171/13 143/170/12 121/144/12
f 123/146/14 145/172/14 144/173/13 122/147/13
f 124/148/15 146/174/15 145/172/14 123/146/14
f 125/149/16 147/175/16 146/174/15 124/148/15
f 126/150/17 148/176/17 147/175/16 125/149/16
f 127/151/18 149/177/18 148/176/17 126/150/17
f 128/152/19 150/178/19 149/177/18 127/151/18
f 129/153/20 151/179/20 150/180/19 128/154/19
f 130/155/21 152/181/21 151/179/20 129/153/20
f 131/156/22 153/182/22 152/181/21 130/155/21
f 132/132/2 154/158/2 153/182/22 131/156/22
f 133/157/1 155/183/1 176/184/2 154/158/2
f 134/159/3 156/185/3 155/186/1 133/160/1
f 135/161/4 157/187/4 156/185/3 134/159/3
f 136/162/5 158/188/5 157/187/4 135/161/4
f 137/163/6 159/189/6 158/188/5 136/162/5
f 138/164/7 160/190/7 159/189/6 137/163/6
f 139/165/8 161/191/8 160/190/7 138/164/7
f 140/166/9 162/192/9 161/193/8 139/167/8
f 141/168/10 163/194/10 162/192/9 140/166/9
f 142/169/11 164/195/11 163/194/10 141/168/10
f 143/170/12 165/196/12 164/195/11 142/169/11
f 144/171/13 166/197/13 165/196/12 143/170/12
f 145/172/14 167/198/14 166/199/13 144/173/13
f 146/174/15 168/200/15 167/198/14 145/172/14
f 147/175/16 169/201/16 168/200/15 146/174/15
f 148/176/17 170/202/17 169/201/16 147/175/16
f 149/177/18 171/203/18 170/202/17 148/176/17
f 150/178/19 172/204/19 171/203/18 149/177/18
f 151/179/20 173/205/20 172/206/19 150/180/19
f 152/181/21 174/207/21 173/205/20 151/179/20
f 153/182/22 175/208/22 174/207/21 152/181/21
f 154/158/2 176/184/2 175/208/22 153/182/22
f 155/183/1 177/209/1 198/210/2 176/184/2
f 156/185/3 178/211/3 177/212/1 155/186/1
f 157/187/4 179/213/4 178/211/3 156/185/3
f 158/188/5 180/214/5 179/213/4 157/187/4
f 159/189/6 181/215/6 180/214/5 158/188/5
f 160/190/7 182/216/7 181/215/6 159/189/6
f 161/191/8 183/217/8 182/216/7 160/190/7
f 162/192/9 184/218/9 183/219/8 161/193/8
f 163/194/10 185/220/10 184/218/9 162/192/9
f 164/195/11 186/221/11 185/220/10 163/194/10
f 165/196/12 187/222/12 186/221/11 164/195/11
f 166/197/13 188/223/13 187/222/12 165/196/12
f 167/198/14 189/224/14 188/225/13 166/199/13
f 168/200/15 190/226/15 189/224/14 167/198/14
f 169/201/16 191/227/16 190/226/15 168/200/15
f 170/202/17 192/228/17 191/227/16 169/201/16
f 171/203/18 193/229/18 192/228/17 170/202/17
f 172/204/19 194/230/19 193/229/18 171/203/18
f 173/205/20 195/231/20 194/232/19 172/206/19
f 174/207/21 196/233/21 195/231/20 173/205/20
f 175/208/22 197/234/22 196/233/21 174/207/21
f 176/184/2 198/210/2 197/234/22 175/208/22
